<?xml version="1.0" encoding="utf-8"?>
<!-- Generator: Adobe Illustrator 22.0.0, SVG Export Plug-In . SVG Version: 6.00 Build 0)  -->
<svg version="1.1" id="Capa_1" xmlns="http://www.w3.org/2000/svg" xmlns:xlink="http://www.w3.org/1999/xlink" x="0px" y="0px"
	 viewBox="0 0 271 271" enable-background="new 0 0 271 271" xml:space="preserve">
<g>
	<g>
		<path fill="#112211" d="M7.5,270.8c-2,0-3.7-0.5-5-1.5c-1.3-1-2-2.3-2-3.8v-69.3c0-1.6,0.7-2.9,2-3.8c1.3-1,3-1.5,5-1.5
			c2.2,0,4,0.6,5.5,1.9l59.8,59.4v-56c0-1.6,0.7-2.9,2.1-3.8c1.4-1,3.1-1.5,5.1-1.5c2.1,0,3.8,0.5,5.1,1.5c1.3,1,1.9,2.3,1.9,3.8
			v69.3c0,1.5-0.6,2.8-1.9,3.8c-1.3,1-3,1.5-5.1,1.5c-0.9,0-1.9-0.2-2.9-0.5c-1.1-0.3-1.9-0.8-2.5-1.4l-59.8-59.4v55.9
			c0,1.5-0.7,2.8-2,3.8C11.3,270.3,9.6,270.8,7.5,270.8z"/>
		<path fill="#112211" d="M121.4,270.8c-2,0-3.7-0.5-5.1-1.5c-1.4-1-2.1-2.3-2.1-3.8v-69.3c0-1.6,0.7-2.9,2.1-3.8
			c1.4-1,3.1-1.5,5.1-1.5h24.7c6.9,0,12.9,1.1,18.2,3.2c5.3,2.2,9.4,5.1,12.4,8.9c3,3.8,4.5,8.1,4.5,13.1c0,4.6-1.5,8.8-4.5,12.4
			c-3,3.6-7.1,6.5-12.4,8.5c-5.3,2-11.4,3.1-18.2,3.1h-17.5v25.5c0,1.5-0.7,2.8-2,3.8C125.2,270.3,123.5,270.8,121.4,270.8z
			 M128.5,230.2h17.5c4.2,0,7.9-0.6,11.1-1.8c3.2-1.2,5.7-2.9,7.5-5c1.8-2.2,2.7-4.6,2.7-7.3c0-3-0.9-5.7-2.7-8
			c-1.8-2.3-4.3-4.1-7.5-5.4c-3.2-1.3-6.9-1.9-11.1-1.9h-17.5V230.2z M178.3,270.8c-1.3,0-2.4-0.2-3.5-0.6c-1.1-0.4-1.9-1.1-2.7-1.9
			l-24.7-29.7l13.8-3l22.5,27c1.6,2,1.9,3.8,0.7,5.6C183.2,269.9,181.2,270.8,178.3,270.8z"/>
		<path fill="#112211" d="M208,270.8c-2,0-3.7-0.5-5.1-1.5c-1.4-1-2.1-2.3-2.1-3.8v-69.3c0-1.6,0.7-2.9,2.1-3.8
			c1.4-1,3.1-1.5,5.1-1.5h27.4c6.9,0,12.9,1.1,18.2,3.4c5.3,2.3,9.4,5.4,12.4,9.4c3,4,4.5,8.6,4.5,13.8c0,5-1.5,9.4-4.5,13.3
			c-3,3.9-7.1,6.9-12.4,9.1c-5.3,2.2-11.4,3.3-18.2,3.3h-20.3v22.4c0,1.5-0.7,2.8-2,3.8C211.8,270.3,210.1,270.8,208,270.8z
			 M215.1,233.2h20.3c4.2,0,7.9-0.7,11.1-2c3.2-1.4,5.7-3.2,7.5-5.6c1.8-2.4,2.7-5.1,2.7-8.2c0-3.3-0.9-6.2-2.7-8.7
			c-1.8-2.5-4.3-4.5-7.5-5.9c-3.2-1.4-6.9-2.2-11.1-2.2h-20.3V233.2z"/>
	</g>
</g>
<g>
	<path fill="#DDB300" d="M186.8,61.6c-4.6,4.8-9.2,9.7-13.8,14.5c-11.5,12-22.9,24-34.4,36l-3.2,3.3V2c2.6-0.1,5.3,1.4,6.7,4.2
		l23,48.7c1.1,2.3,3.1,3.8,5.5,4.2L186.8,61.6z"/>
	<path fill="#DDB322" d="M99.7,94.4c-0.7,0.9-1.1,2.1-1.1,3.5c0,0.8,0.2,1.6,0.5,2.4c0.4,0.8,0.9,1.4,1.5,2c10,8.8,20,17.6,30,26.4
		c0.2,0.2,0.4,0.3,0.6,0.5c0.4,0.4,0.9,0.8,1.4,1c0.7,0.4,1.5,0.6,2.4,0.6c0.1,0,0.3,0,0.4,0V160c-1.1,0-2.2,0.3-3.3,0.9l-45.9,25.3
		c-5.3,2.9-11.6-1.8-10.6-8l8.8-53.5c0.4-2.5-0.4-5-2.1-6.7L45.2,79.9c-4.3-4.4-1.9-12.1,4-13l51.3-7.8c2.4-0.4,4.4-1.9,5.5-4.2
		l23-48.7c1.3-2.8,3.8-4.2,6.4-4.2v113.4c-0.3,0.3-0.6,0.6-0.9,0.9c-8.7-7.7-17.5-15.4-26.2-23.1c-1.1-1-2.5-1.5-3.8-1.5
		c-0.8,0-1.6,0.2-2.3,0.5C101.2,92.8,100.3,93.5,99.7,94.4z"/>
	<path fill="#DD9100" d="M188.7,117.8c-1.7,1.8-2.5,4.3-2.1,6.7l8.8,53.5c1,6.2-5.2,11-10.6,8l-45.9-25.3c-1.1-0.6-2.3-0.9-3.5-0.9
		v-29.3c0.6,0,1.1-0.2,1.7-0.4c0.7-0.3,1.3-0.8,1.9-1.3c7.2-7.5,14.3-15,21.5-22.5c11.5-12,22.9-24,34.4-36c2.1-2.2,4.2-4.4,6.3-6.6
		l20.7,3.1c6,0.9,8.4,8.6,4,13L188.7,117.8z"/>
</g>
</svg>
