<?xml version="1.0" encoding="utf-8"?>
<!-- Generator: Adobe Illustrator 22.0.0, SVG Export Plug-In . SVG Version: 6.00 Build 0)  -->
<svg version="1.1" id="Capa_1" xmlns="http://www.w3.org/2000/svg" xmlns:xlink="http://www.w3.org/1999/xlink" x="0px" y="0px"
	 viewBox="0 0 191 191" enable-background="new 0 0 191 191" xml:space="preserve">
<g>
	<path fill="#112211" d="M148.2,61.7c-4.7,5-9.5,9.9-14.2,14.9c-11.8,12.3-23.5,24.7-35.3,37l-3.3,3.4V0.5c2.7-0.1,5.4,1.4,6.8,4.4
		l23.6,50c1.1,2.3,3.2,3.9,5.6,4.3L148.2,61.7z"/>
	<path fill="#223322" d="M58.7,95.4c-0.7,1-1.2,2.2-1.2,3.6c0,0.8,0.2,1.7,0.5,2.4c0.4,0.8,0.9,1.5,1.5,2
		c10.3,9,20.5,18.1,30.8,27.1c0.2,0.2,0.4,0.3,0.7,0.5c0.4,0.4,0.9,0.8,1.5,1.1c0.7,0.4,1.6,0.6,2.5,0.6c0.2,0,0.3,0,0.5,0v30.1
		c-1.2,0-2.3,0.3-3.3,0.9l-47.1,26c-5.5,3-11.9-1.9-10.8-8.3l9-55c0.4-2.5-0.4-5.1-2.1-6.9L2.8,80.5C-1.6,76,0.8,68.1,7,67.2l52.7-8
		c2.4-0.4,4.5-2,5.6-4.3l23.6-50c1.3-2.9,3.9-4.3,6.6-4.4V117c-0.3,0.3-0.6,0.6-0.9,0.9c-9-7.9-18-15.8-26.9-23.7
		c-1.1-1-2.6-1.5-3.9-1.5c-0.8,0-1.6,0.2-2.4,0.5C60.3,93.7,59.4,94.5,58.7,95.4z"/>
	<path fill="#001100" d="M150.1,119.4c-1.8,1.8-2.6,4.4-2.1,6.9l9,55c1,6.4-5.4,11.3-10.8,8.3l-47.1-26c-1.1-0.6-2.4-0.9-3.6-0.9
		v-30.1c0.6,0,1.2-0.2,1.7-0.4c0.7-0.3,1.4-0.8,1.9-1.4c7.4-7.7,14.7-15.4,22.1-23.1c11.8-12.3,23.5-24.7,35.3-37
		c2.2-2.3,4.3-4.5,6.5-6.8l21.2,3.2c6.1,0.9,8.6,8.8,4.1,13.4L150.1,119.4z"/>
</g>
</svg>
